<?xml version="1.0" standalone="no"?>
<!DOCTYPE svg PUBLIC "-//W3C//DTD SVG 20010904//EN"
 "http://www.w3.org/TR/2001/REC-SVG-20010904/DTD/svg10.dtd">
<svg version="1.0" xmlns="http://www.w3.org/2000/svg"
 width="40.000000pt" height="40.000000pt" viewBox="0 0 40.000000 40.000000"
 preserveAspectRatio="xMidYMid meet">

<g transform="translate(0.000000,40.000000) scale(0.100000,-0.100000)"
fill="#000000" stroke="none">
<path d="M0 200 l0 -200 200 0 200 0 0 200 0 200 -200 0 -200 0 0 -200z m95
90 c4 -7 12 -7 25 0 27 15 66 12 80 -5 11 -13 15 -13 33 0 30 21 63 19 87 -5
17 -17 20 -33 20 -100 0 -73 -2 -80 -20 -80 -17 0 -19 8 -22 83 -3 75 -5 82
-24 85 -39 6 -54 -23 -54 -99 0 -62 -2 -69 -20 -69 -17 0 -19 8 -22 82 -3 71
-6 83 -21 86 -38 8 -57 -26 -57 -100 0 -61 -2 -69 -17 -66 -15 3 -18 17 -21
87 -2 47 -1 90 2 98 6 15 22 17 31 3z"/>
</g>
</svg>
